<svg width="96" height="96" viewBox="0 0 96 96" fill="none" xmlns="http://www.w3.org/2000/svg">
<path d="M24 88C20.6 88 17.75 86.85 15.45 84.55C13.15 82.25 12 79.4 12 76V20C12 16.6667 13.15 13.8333 15.45 11.5C17.75 9.16667 20.6 8 24 8H60C62.2 8 64.0833 8.78333 65.65 10.35C67.2167 11.9167 68 13.8 68 16V64C68 66.2 67.2167 68.0833 65.65 69.65C64.0833 71.2167 62.2 72 60 72H24C22.8667 72 21.9167 72.3833 21.15 73.15C20.3833 73.9167 20 74.8667 20 76C20 77.1333 20.3833 78.0833 21.15 78.85C21.9167 79.6167 22.8667 80 24 80H76V20C76 18.8667 76.3833 17.9167 77.15 17.15C77.9167 16.3833 78.8667 16 80 16C81.1333 16 82.0833 16.3833 82.85 17.15C83.6167 17.9167 84 18.8667 84 20V80C84 82.2 83.2167 84.0833 81.65 85.65C80.0833 87.2167 78.2 88 76 88H24ZM32 64C33.1333 64 34.0833 63.6167 34.85 62.85C35.6167 62.0833 36 61.1333 36 60V20C36 18.8667 35.6167 17.9167 34.85 17.15C34.0833 16.3833 33.1333 16 32 16C30.8667 16 29.9167 16.3833 29.15 17.15C28.3833 17.9167 28 18.8667 28 20V60C28 61.1333 28.3833 62.0833 29.15 62.85C29.9167 63.6167 30.8667 64 32 64Z" fill="black"/>
</svg>
