<svg width="20" height="20" viewBox="0 0 20 20" fill="none" xmlns="http://www.w3.org/2000/svg">
<g clip-path="url(#clip0_28_489)">
<path d="M16.6666 3.33331H3.33329C2.40829 3.33331 1.67496 4.07498 1.67496 4.99998L1.66663 15C1.66663 15.925 2.40829 16.6666 3.33329 16.6666H16.6666C17.5916 16.6666 18.3333 15.925 18.3333 15V4.99998C18.3333 4.07498 17.5916 3.33331 16.6666 3.33331ZM16.6666 15H3.33329V9.99998H16.6666V15ZM16.6666 6.66665H3.33329V4.99998H16.6666V6.66665Z" fill="#747496"/>
</g>
<defs>
<clipPath id="clip0_28_489">
<path d="M0 6C0 2.68629 2.68629 0 6 0H14C17.3137 0 20 2.68629 20 6V20H0V6Z" fill="white"/>
</clipPath>
</defs>
</svg>
