<svg width="20" height="20" viewBox="0 0 20 20" fill="none" xmlns="http://www.w3.org/2000/svg">
<g clip-path="url(#clip0_28_462)">
<path d="M15.7667 5.84167C15.6 5.35 15.1333 5 14.5833 5H5.41667C4.86667 5 4.40833 5.35 4.23333 5.84167L2.5 10.8333V17.5C2.5 17.9583 2.875 18.3333 3.33333 18.3333H4.16667C4.625 18.3333 5 17.9583 5 17.5V16.6667H15V17.5C15 17.9583 15.375 18.3333 15.8333 18.3333H16.6667C17.125 18.3333 17.5 17.9583 17.5 17.5V10.8333L15.7667 5.84167ZM5.41667 14.1667C4.725 14.1667 4.16667 13.6083 4.16667 12.9167C4.16667 12.225 4.725 11.6667 5.41667 11.6667C6.10833 11.6667 6.66667 12.225 6.66667 12.9167C6.66667 13.6083 6.10833 14.1667 5.41667 14.1667ZM14.5833 14.1667C13.8917 14.1667 13.3333 13.6083 13.3333 12.9167C13.3333 12.225 13.8917 11.6667 14.5833 11.6667C15.275 11.6667 15.8333 12.225 15.8333 12.9167C15.8333 13.6083 15.275 14.1667 14.5833 14.1667ZM4.16667 10L5.41667 6.25H14.5833L15.8333 10H4.16667Z" fill="#747496"/>
</g>
<defs>
<clipPath id="clip0_28_462">
<path d="M0 6C0 2.68629 2.68629 0 6 0H14C17.3137 0 20 2.68629 20 6V20H0V6Z" fill="white"/>
</clipPath>
</defs>
</svg>
