<svg width="96" height="96" viewBox="0 0 96 96" fill="none" xmlns="http://www.w3.org/2000/svg">
<g clip-path="url(#clip0_219_1274)">
<path d="M51.56 44.4C44.44 42.04 41 40.56 41 36.8C41 32.72 45.44 31.24 48.24 31.24C53.48 31.24 55.4 35.2 55.84 36.6L62.16 33.92C61.56 32.12 58.88 26.24 52 24.96V20H44V25.04C34.08 27.28 34.04 36.48 34.04 36.88C34.04 45.96 43.04 48.52 47.44 50.12C53.76 52.36 56.56 54.4 56.56 58.24C56.56 62.76 52.36 64.68 48.64 64.68C41.36 64.68 39.28 57.2 39.04 56.32L32.4 59C34.92 67.76 41.52 70.12 44 70.84V76H52V71.04C53.6 70.68 63.6 68.68 63.6 58.16C63.6 52.6 61.16 47.72 51.56 44.4ZM12 84H4V60H28V68H18.08C24.52 77.64 35.52 84 48 84C67.88 84 84 67.88 84 48H92C92 72.32 72.32 92 48 92C33.12 92 19.96 84.6 12 73.32V84ZM4 48C4 23.68 23.68 4 48 4C62.88 4 76.04 11.4 84 22.68V12H92V36H68V28H77.92C71.48 18.36 60.48 12 48 12C28.12 12 12 28.12 12 48H4Z" fill="black"/>
</g>
<defs>
<clipPath id="clip0_219_1274">
<rect width="96" height="96" fill="white"/>
</clipPath>
</defs>
</svg>
