<svg width="96" height="96" viewBox="0 0 96 96" fill="none" xmlns="http://www.w3.org/2000/svg">
<path d="M32 54.6V28C32 26.8667 32.3833 25.9167 33.15 25.15C33.9167 24.3833 34.8667 24 36 24H40C41.1333 24 42.0833 24.3833 42.85 25.15C43.6167 25.9167 44 26.8667 44 28V54.6L43.5 54.1C41.9667 52.6333 40.1333 51.9 38 51.9C35.8667 51.9 34.0333 52.6333 32.5 54.1L32 54.6ZM52 60.6V12C52 10.8667 52.3833 9.91667 53.15 9.15C53.9167 8.38333 54.8667 8 56 8H60C61.1333 8 62.0833 8.38333 62.85 9.15C63.6167 9.91667 64 10.8667 64 12V48.6L52 60.6ZM12 74.4V44C12 42.8667 12.3833 41.9167 13.15 41.15C13.9167 40.3833 14.8667 40 16 40H20C21.1333 40 22.0833 40.3833 22.85 41.15C23.6167 41.9167 24 42.8667 24 44V62.4L12 74.4ZM21.6 84.2C19.8667 84.2 18.65 83.3833 17.95 81.75C17.25 80.1167 17.5333 78.6667 18.8 77.4L35.2 61C35.9333 60.2667 36.8167 59.8667 37.85 59.8C38.8833 59.7333 39.8 60.0667 40.6 60.8L52 70.6L74.4 48.2H72C70.8667 48.2 69.9167 47.8167 69.15 47.05C68.3833 46.2833 68 45.3333 68 44.2C68 43.0667 68.3833 42.1167 69.15 41.35C69.9167 40.5833 70.8667 40.2 72 40.2H84C85.1333 40.2 86.0833 40.5833 86.85 41.35C87.6167 42.1167 88 43.0667 88 44.2V56.2C88 57.3333 87.6167 58.2833 86.85 59.05C86.0833 59.8167 85.1333 60.2 84 60.2C82.8667 60.2 81.9167 59.8167 81.15 59.05C80.3833 58.2833 80 57.3333 80 56.2V53.8L55 78.8C54.2667 79.5333 53.3833 79.9333 52.35 80C51.3167 80.0667 50.4 79.7333 49.6 79L38.2 69.2L24.4 83C24.0667 83.3333 23.65 83.6167 23.15 83.85C22.65 84.0833 22.1333 84.2 21.6 84.2Z" fill="black"/>
</svg>
