<svg width="96" height="96" viewBox="0 0 96 96" fill="none" xmlns="http://www.w3.org/2000/svg">
<path d="M76.6 58.8L85.2 67.2L66.8 85.6C66.0667 86.3333 65.2167 86.9167 64.25 87.35C63.2833 87.7833 62.2667 88 61.2 88H60C58.8667 88 57.9167 87.6167 57.15 86.85C56.3833 86.0833 56 85.1333 56 84V82.8C56 81.7333 56.2 80.7167 56.6 79.75C57 78.7833 57.5667 77.9333 58.3 77.2L76.6 58.8ZM88.1 64.4L79.6 55.9L82.4 53.1C83.2 52.3 84.1667 51.9 85.3 51.9C86.4333 51.9 87.3667 52.3 88.1 53.1L90.9 56C91.6333 56.8 92 57.75 92 58.85C92 59.95 91.6333 60.8667 90.9 61.6L88.1 64.4ZM16 80C13.8 80 11.9167 79.2167 10.35 77.65C8.78333 76.0833 8 74.2 8 72V24C8 21.8 8.78333 19.9167 10.35 18.35C11.9167 16.7833 13.8 16 16 16H36.7C37.7667 16 38.7833 16.2 39.75 16.6C40.7167 17 41.5667 17.5667 42.3 18.3L48 24H80C82.2 24 84.0833 24.7833 85.65 26.35C87.2167 27.9167 88 29.8 88 32V43.7C85.9333 43.7 83.9 43.95 81.9 44.45C79.9 44.95 78.1667 45.9333 76.7 47.4L44.3 80H16Z" fill="black"/>
</svg>
