<svg width="20" height="20" viewBox="0 0 20 20" fill="none" xmlns="http://www.w3.org/2000/svg">
<g clip-path="url(#clip0_28_467)">
<path d="M13.3334 9.16669C14.7167 9.16669 15.825 8.05002 15.825 6.66669C15.825 5.28335 14.7167 4.16669 13.3334 4.16669C11.95 4.16669 10.8334 5.28335 10.8334 6.66669C10.8334 8.05002 11.95 9.16669 13.3334 9.16669ZM6.66671 9.16669C8.05004 9.16669 9.15837 8.05002 9.15837 6.66669C9.15837 5.28335 8.05004 4.16669 6.66671 4.16669C5.28337 4.16669 4.16671 5.28335 4.16671 6.66669C4.16671 8.05002 5.28337 9.16669 6.66671 9.16669ZM6.66671 10.8334C4.72504 10.8334 0.833374 11.8084 0.833374 13.75V15.8334H12.5V13.75C12.5 11.8084 8.60837 10.8334 6.66671 10.8334ZM13.3334 10.8334C13.0917 10.8334 12.8167 10.85 12.525 10.875C13.4917 11.575 14.1667 12.5167 14.1667 13.75V15.8334H19.1667V13.75C19.1667 11.8084 15.275 10.8334 13.3334 10.8334Z" fill="#747496"/>
</g>
<defs>
<clipPath id="clip0_28_467">
<path d="M0 6C0 2.68629 2.68629 0 6 0H14C17.3137 0 20 2.68629 20 6V20H0V6Z" fill="white"/>
</clipPath>
</defs>
</svg>
