<svg width="20" height="20" viewBox="0 0 20 20" fill="none" xmlns="http://www.w3.org/2000/svg">
<path d="M11.5625 18.4928H8.4375C8.22916 18.4928 8.04861 18.4227 7.89583 18.2826C7.74305 18.1425 7.65277 17.9674 7.625 17.7572L7.375 15.8029C7.19444 15.7329 7.02444 15.6488 6.865 15.5507C6.705 15.4527 6.54861 15.3476 6.39583 15.2355L4.58333 15.992C4.38889 16.0621 4.19444 16.0691 4 16.013C3.80555 15.957 3.65277 15.8379 3.54166 15.6558L2 12.9449C1.88889 12.7628 1.85416 12.5667 1.89583 12.3565C1.9375 12.1464 2.04166 11.9783 2.20833 11.8522L3.77083 10.6543C3.75694 10.5563 3.75 10.4616 3.75 10.3702V9.80284C3.75 9.71206 3.75694 9.61763 3.77083 9.51957L2.20833 8.32174C2.04166 8.19565 1.9375 8.02754 1.89583 7.81739C1.85416 7.60725 1.88889 7.41111 2 7.22899L3.54166 4.51812C3.63889 4.32198 3.78805 4.19926 3.98916 4.14994C4.19083 4.10119 4.38889 4.11184 4.58333 4.18188L6.39583 4.93841C6.54861 4.82633 6.70833 4.72126 6.875 4.62319C7.04166 4.52512 7.20833 4.44106 7.375 4.37101L7.625 2.41667C7.65277 2.20652 7.74305 2.0314 7.89583 1.8913C8.04861 1.75121 8.22916 1.68116 8.4375 1.68116H11.5625C11.7708 1.68116 11.9514 1.75121 12.1042 1.8913C12.2569 2.0314 12.3472 2.20652 12.375 2.41667L12.625 4.37101C12.8056 4.44106 12.9758 4.52512 13.1358 4.62319C13.2953 4.72126 13.4514 4.82633 13.6042 4.93841L15.4167 4.18188C15.6111 4.11184 15.8056 4.10483 16 4.16087C16.1944 4.21691 16.3472 4.33599 16.4583 4.51812L18 7.22899C18.1111 7.41111 18.1458 7.60725 18.1042 7.81739C18.0625 8.02754 17.9583 8.19565 17.7917 8.32174L16.2292 9.51957C16.2431 9.61763 16.25 9.71206 16.25 9.80284V10.3702C16.25 10.4616 16.2361 10.5563 16.2083 10.6543L17.7708 11.8522C17.9375 11.9783 18.0417 12.1464 18.0833 12.3565C18.125 12.5667 18.0903 12.7628 17.9792 12.9449L16.4375 15.6348C16.3264 15.8169 16.1703 15.9396 15.9692 16.003C15.7675 16.0657 15.5694 16.0621 15.375 15.992L13.6042 15.2355C13.4514 15.3476 13.2917 15.4527 13.125 15.5507C12.9583 15.6488 12.7917 15.7329 12.625 15.8029L12.375 17.7572C12.3472 17.9674 12.2569 18.1425 12.1042 18.2826C11.9514 18.4227 11.7708 18.4928 11.5625 18.4928ZM10.0417 13.029C10.8472 13.029 11.5347 12.7418 12.1042 12.1674C12.6736 11.593 12.9583 10.8995 12.9583 10.087C12.9583 9.2744 12.6736 8.58092 12.1042 8.00652C11.5347 7.43213 10.8472 7.14493 10.0417 7.14493C9.22222 7.14493 8.53111 7.43213 7.96833 8.00652C7.40611 8.58092 7.125 9.2744 7.125 10.087C7.125 10.8995 7.40611 11.593 7.96833 12.1674C8.53111 12.7418 9.22222 13.029 10.0417 13.029Z" fill="#0E201D"/>
</svg>
